/* XPM */
static char *door1701276706[] = {
/* columns rows colors chars-per-pixel */
"32 32 187 2 ",
"   c #676E19",
".  c #6C731D",
"X  c #72751B",
"o  c #75781E",
"O  c #6F7621",
"+  c #777A20",
"@  c #7A7D23",
"#  c #797F2B",
"$  c #77653C",
"%  c #79643B",
"&  c #7D6A3D",
"*  c #7E793D",
"=  c #817B34",
"-  c #867C3D",
";  c #806F40",
":  c #837342",
">  c #867B46",
",  c #8A7E4A",
"<  c #897C47",
"1  c #85587D",
"2  c #9B7879",
"3  c #A07C72",
"4  c #7E8126",
"5  c #7F8229",
"6  c #818327",
"7  c #81842B",
"8  c #86882F",
"9  c #868930",
"0  c #8B8E36",
"q  c #88853A",
"w  c #8E9038",
"e  c #8E804B",
"r  c #90844B",
"t  c #938A4A",
"y  c #98924B",
"u  c #8F8257",
"i  c #948750",
"p  c #9F8969",
"a  c #A6897F",
"s  c #863887",
"d  c #8C3B8B",
"f  c #853396",
"g  c #853995",
"h  c #AF3DAC",
"j  c #A02FB4",
"k  c #AB34BF",
"l  c #924A89",
"z  c #835D82",
"x  c #92598A",
"c  c #914797",
"v  c #9A4199",
"b  c #985198",
"n  c #9D5F91",
"m  c #A6599B",
"M  c #8F668C",
"N  c #9F6888",
"B  c #97688D",
"V  c #98708F",
"C  c #9F6197",
"Z  c #956D94",
"A  c #9D7997",
"S  c #A36D8C",
"D  c #A87D8D",
"F  c #AC6B9D",
"G  c #AA629B",
"H  c #A97A92",
"J  c #AA7497",
"K  c #9255A2",
"L  c #AA49AD",
"P  c #B256AA",
"I  c #AF47BF",
"U  c #BE4CBC",
"Y  c #B54ABF",
"T  c #AF5DB7",
"R  c #B65AB5",
"E  c #9C6DA2",
"W  c #9F6FAB",
"Q  c #A36FA1",
"!  c #B369AF",
"~  c #A571A9",
"^  c #AA71A5",
"/  c #B479A7",
"(  c #BC65BE",
")  c #B668B8",
"_  c #C16BBC",
"`  c #B33CC1",
"'  c #D73DE0",
"]  c #B243C1",
"[  c #B74BC1",
"{  c #BB67C0",
"}  c #D84BDF",
"|  c #DA5EDD",
" . c #C95AC3",
".. c #C564C8",
"X. c #CE7ECF",
"o. c #D07BCD",
"O. c #D96CDB",
"+. c #D977D6",
"@. c #E06DDC",
"#. c #E659E5",
"$. c #E778E8",
"%. c #A48498",
"&. c #B3889C",
"*. c #A98A86",
"=. c #AB85A1",
"-. c #B685A6",
";. c #AF99A8",
":. c #B797A7",
">. c #B695AD",
",. c #B68EB2",
"<. c #BE98B4",
"1. c #B7A2AC",
"2. c #BAA3AD",
"3. c #BEA5B2",
"4. c #BBAAB9",
"5. c #C484BB",
"6. c #C188BF",
"7. c #C893BE",
"8. c #C2ACB5",
"9. c #C3AAB8",
"0. c #CBB6BE",
"q. c #CBBABE",
"w. c #C5B4BE",
"e. c #CF89C7",
"r. c #D68ACE",
"t. c #C69DC3",
"y. c #CB9CC6",
"u. c #CA9EC9",
"i. c #C792C4",
"p. c #D298CA",
"a. c #DD8DD4",
"s. c #DF9BD5",
"d. c #E08AD9",
"f. c #E399D9",
"g. c #C9A6C2",
"h. c #D2A7C7",
"j. c #D2A5CA",
"k. c #D5ACCB",
"l. c #CCBBC1",
"z. c #CFBFC8",
"x. c #C8B3C2",
"c. c #D1B7C5",
"v. c #D1BCC3",
"b. c #D4B2CB",
"n. c #DEBECF",
"m. c #DBA5D0",
"M. c #DABAD1",
"N. c #DDB6D3",
"B. c #E5A4DA",
"V. c #E4AAD8",
"C. c #E9B3DD",
"Z. c #EBBBDD",
"A. c #F09BE9",
"S. c #EA87E8",
"D. c #EBA7E1",
"F. c #F3AAEC",
"G. c #EDB9E1",
"H. c #F4B8E8",
"J. c #D3C4C5",
"K. c #D7CDC7",
"L. c #D6C5CA",
"P. c #D6CBCC",
"I. c #DACDCC",
"U. c #DAC7CD",
"Y. c #DCC9D2",
"T. c #DEC2D8",
"R. c #DDD3D2",
"E. c #E5CFD7",
"W. c #EFC4DF",
"Q. c #E4CFD9",
"!. c #E0C2D7",
"~. c #E1D5D5",
"^. c #E1D8D5",
"/. c #E5DDDA",
"(. c #EAE4DE",
"). c #EEC3E0",
"_. c #EAE4E0",
"`. c #EFEBE6",
"'. c #F1E4E5",
"]. c #F1EDE6",
"[. c #F2EEEA",
"{. c #F3E7E8",
"}. c #F4F1EC",
"|. c #F9F6EF",
" X c #FFFFF5",
".X c #FFFFF9",
"XX c #F9F6F0",
/* pixels */
"X X X X X X X X X X X X X X X X X X X X X X X X X X X X X X X X ",
"X X X X X X X X X X X X X X X X X X X X X X X X X X X X X X X X ",
"X X X X X X X X X X X X X X X X X X X X X X X X X X X X X X X X ",
"X X X X X X X X X X X X X X X X X X X X X X X X X X X X X X X X ",
"X X X X X X X . X X X X X X $ v % X X X o X X X X X X X X X X X ",
"X X X X X X X X X X X o X % U h U % o o X X X X X X X X X X X X ",
"X X X X X X X X X X X o o m P l  .m = + o o X X X X X X X X X X ",
"X X X X X X X X = o @ - G ) z 1 1 _  .: @ + o X X X X X X X X X ",
"X X X X X X X o 4 5 # G O.M Z Z B N o.G = 6 o o X X X X X X X X ",
"X X X X 5 5 @ o . 6 S $.o.-.,.,.=.%.&.S.2 = = o X X X X X X X X ",
"X X X X X 5 4 5 O * o.p.>.9.3.3.2.8.9.m.r.3 6 = o o X X X X X X ",
"X X o @ o   4 5 7 2 A.j.9.c.v.q.0.0.q.k.H._ 8 = @ o o X X X X X ",
"X X X 4 o 6 O 9 q H D.9.z.z.L.P.Y.U.L.x.H.7.r 8 = + o X X X X X ",
"X X X   @ 4 @ 5 , r.C.l.J.~./././.^.I.q.C.F.p 9 6 @ o o X X X X ",
"X X X X . 6 5 9 u s.N.J.I.(.|.XX|.(.^.J.n.H.a 0 8 @ o X X X X X ",
"X X X X o X 5 w p B.M.L.~.{. X X X].(.K.U.H.*.0 8 @ @ X X X X X ",
"X X X X + 4 5 y 2 D.l.P.R.[..X.X X}.(.R.v.G.&.t 8 = 4 o X X X X ",
"X X X X + 4 5 e %.m.q.P.R.`..X.X X}.(.R.J.W.&.y 7 4 o o X X X X ",
"X X X X + + 5 e H B.q.L.R.[..X.X X`./.I.J.W.-.i 8 4 o o X X X X ",
"X X X . o 4 5 e H f.4.J.P._. X.X X(.R.L.q.Z./ r 7 4 o o X X X X ",
"X X X X o + @ > N f.1.x.L.R.{.`._.R.J.q.8.C.J , 6 o o o X X X X ",
"X X X X o + + > B d.;.4.x.Y.Q.).~.!.v.8.1.V.J e 6 o o X X X X X ",
". X X X X + + : x +.A >.k.T.!.M.b.b.b.:.%.a.m : @ o X X X X X X ",
"X X X X X X + ; l O.V 7.j.k.k.j.g.g.7.7.A +.b & o o X X X X X X ",
"X X X X X X o & l | ~ ,.e.u.y.y.u.u.i.,./ @.c % o o X X X X X X ",
"X X X X X X X % d } K m n E ~ ^ Q E W ) ! | g $ o X X X X X X X ",
"X X X X X X X % s ' L P P { { ( T ( R ....#.f $ X X X X X X X X ",
"X X X X X X X % s j k k ] [ [ [ ] ] ] ` ` ` f % X X X X X X X X ",
"X X X X X X X X X X X X X X X X X X X X X X X X X X X X X X X X ",
"X X X X X X X X X X X X X X X X X X X X X X X X X X X X X X X X ",
"X X X X X X X X X X X X X X X X X X X X X X X X X X X X X X X X ",
"X X X X X X X X X X X X X . X X X X . X X X X X X X X X X X X X "
};
