/* XPM */
static char *result[] = {
/* columns rows colors chars-per-pixel */
"32 32 21 1 ",
"  c #72751B",
". c #0C0A07",
"X c #4C342F",
"o c #7F8226",
"O c #634A45",
"+ c #787B21",
"@ c #656C17",
"# c #553D39",
"$ c #3A2B28",
"% c #6E7D61",
"& c #4C403D",
"* c #8F9D84",
"= c #5F7050",
"- c #E4B5A5",
"; c #D2A394",
": c #425059",
"> c #57636B",
", c #362623",
"< c #554C3C",
"1 c #525315",
"2 c #3C3C10",
/* pixels */
"                                ",
"                                ",
"                                ",
"                                ",
"                                ",
"              .  ..             ",
"             .X..XX...          ",
"        o   .XOXXOOXXX.         ",
"        ++ .OOOOOOOOO.          ",
"    oo+ @+.XOOOOOOOXXO.         ",
"     o++@.XXOOOOOOXOOO.         ",
"  +o @++ @.OOOOOOOOOOOX.        ",
"   o++@+ +.#OOXOXOOOOX.         ",
"   @++ @@.##OOOXOOOOO#.         ",
"    @+  @@.##OOOOOOOO##.        ",
"     @ ++ .###OOOOOO##.         ",
"       o@  .##OOOO###.          ",
"       @    .#######.           ",
"           .$%$%%%$%$.          ",
"           .$$%%%%%$$.          ",
"          .$$$%%%%%$$$.         ",
"          .&%$%***%$%&.         ",
"         .&&.%%===%%.&&.        ",
"         .-;.$%***%$.;-.        ",
"          ...:::::::...         ",
"            .:>>>>>:.           ",
"            .:::.:::.           ",
"            .::. .::.           ",
"            .,,. .,,.           ",
"           .<,,. .,,<.          ",
"         112222222222211        ",
"          1111111111111         "
};
