/* XPM */
static char *key1701276706[] = {
/* columns rows colors chars-per-pixel */
"32 32 7 1 ",
"  c #72751B",
". c #7F8226",
"X c #787B21",
"o c #FEE861",
"O c #656C17",
"+ c #D77643",
"@ c #FDAE35",
/* pixels */
"                                ",
"                                ",
"                                ",
"                                ",
"                                ",
"                                ",
"                                ",
"        .                       ",
"        XX           ooo        ",
"    ..X OX         oo+++oo      ",
"     .XXOO ..X     +++++++      ",
"  X. OXX OXX.     o++   ++o     ",
"   .XXOX XXX      ++     ++     ",
"   OXX OOXXO      ++     ++     ",
"    OX @@@@@@@@@@@++     ++     ",
"     O ooooooooooo++     ++     ",
"       @@@@@@@@@@@++     ++     ",
"       +++++++++++++     ++     ",
"        +++       ++     ++     ",
"        ++        ++o   o++     ",
"        ++         ++ooo++      ",
"                   +++++++      ",
"                   +++++        ",
"                                ",
"                                ",
"                                ",
"                                ",
"                                ",
"                                ",
"                                ",
"                                ",
"                                "
};
