/* XPM */
static char *result[] = {
/* columns rows colors chars-per-pixel */
"32 32 25 1 ",
"  c #0C0A07",
". c #291A18",
"X c #3C3C10",
"o c #362623",
"O c #3A2B28",
"+ c #4C342F",
"@ c #553D39",
"# c #525315",
"$ c #656C17",
"% c #72751B",
"& c #4C403D",
"* c #554C3C",
"= c #787B21",
"- c #425059",
"; c #634A45",
": c #657358",
"> c #57636B",
", c #6E7D61",
"< c #B56A68",
"1 c #7F8226",
"2 c #87947C",
"3 c #C0AC98",
"4 c #D2A394",
"5 c #E4B5A5",
"6 c #DBCBBC",
/* pixels */
"%%%%%%%%%%%%%%%%%%%%%%%%%%%%%%%%",
"%%%%%%%%%%%%%%%%%%%%%%%%%%%%%%%%",
"%%%%%%%%%%%%%%%%%%%%%%%%%%%%%%%%",
"%%%%%%%%%%%%%%%%%%%%%%%%%%%%%%%%",
"%%%%%%%%%%%%%%% %  %%%%%%%%%%%%%",
"%%%%%%%%%%%%%  + ++  %%%%%%%%%%%",
"%%%%%%%%%%%% @;;+;;@+  %%%%%%%%%",
"%%%%%%%%1%%%% ;;;;;;;+@ %%%%%%%%",
"%%%%%%%%==%% @;;;;;;;@@ %%%%%%%%",
"%%%%11=%$=%% ;++;;;;;;@ %%%%%%%%",
"%%%%%1==$$% +;4+;+;;;@++ %%%%%%%",
"%%=1%$==%$== ;44;4;;;;+ %%%%%%%%",
"%%%1==$=%=== 4 45 4;+;@@ %%%%%%%",
"%%%$==%$$== +4.55.44<;@ %%%%%%%%",
"%%%%$=%%$$$% 4555544@@@ %%%%%%%%",
"%%%%%$%==%%%% 45554@@@ %%%%%%%%%",
"%%%%%%%1$%%%%% 444 @@ %%%%%%%%%%",
"%%%%%%%$%%%%% O333O,O %%%%%%%%%%",
"%%%%%%%%%%%%% O663&,O %%%%%%%%%%",
"%%%%%%%%%%%% &O666&2OO %%%%%%%%%",
"%%%%%%%%%%%% &O366&&,& %%%%%%%%%",
"%%%%%%%%%%% &OO636&O:&& %%%%%%%%",
"%%%%%%%%%%% 4OO---OO:45 %%%%%%%%",
"%%%%%%%%%%%%  ------   %%%%%%%%%",
"%%%%%%%%%%%%% >>>>-- %%%%%%%%%%%",
"%%%%%%%%%%%%% >>->>- %%%%%%%%%%%",
"%%%%%%%%%%%%% >- ->- %%%%%%%%%%%",
"%%%%%%%%%%%%% -- ->- %%%%%%%%%%%",
"%%%%%%%%%%%%% oo ooo %%%%%%%%%%%",
"%%%%%%%%%%%% **o *** %%%%%%%%%%%",
"%%%%%%%%%%##XXXXXXXXX###%%%%%%%%",
"%%%%%%%%%%%############%%%%%%%%%"
};
