/* XPM */
static char *result[] = {
/* columns rows colors chars-per-pixel */
"32 32 26 1 ",
"  c black",
". c #0C0A07",
"X c #291A18",
"o c #3C3C10",
"O c #362623",
"+ c #3A2B28",
"@ c #4C342F",
"# c #553D39",
"$ c #525315",
"% c #656C17",
"& c #72751B",
"* c #4C403D",
"= c #554C3C",
"- c #787B21",
"; c #425059",
": c #634A45",
"> c #657358",
", c #57636B",
"< c #6E7D61",
"1 c #B56A68",
"2 c #7F8226",
"3 c #87947C",
"4 c #C0AC98",
"5 c #D2A394",
"6 c #E4B5A5",
"7 c #DBCBBC",
/* pixels */
"&&&&&&&&&&&&&&&&&&&&&&&&&&&&&&&&",
"&&&&&&&&&&&&&&&&&&&&&&&&&&&&&&&&",
"&&&&&&&&&&&&&&&&&&&&&&&&&&&&&&&&",
"&&&&&&&&&&&&&&&&&&&&&&&&&&&&&&&&",
"&&&&&&&&&&&&&&...&.&&&&&&&&&&&&&",
"&&&&&&&&&&....@@@.@.&&&&&&&&&&&&",
"&&&&&&&&&.@@@#:::@:.&&&&&&&&&&&&",
"&&&&&&&&2&.#::::::::.&&&&&&&&&&&",
"&&&&&&&&-.#:::::::::.&&&&&&&&&&&",
"&&&&22-&%.#::::@@::: &&&&&&&&&&&",
"&&&&&2--.@@#:::5@:@:# &&&&&&&&&&",
"&&-2&%--&.@:::555:5: &&&&&&&&&&&",
"&&&2--%-&.#::55.66.5# &&&&&&&&&&",
"&&&%--&%.@#:155X66X5 &&&&&&&&&&&",
"&&&&%-&&%.###5566665 &&&&&&&&&&&",
"&&&&&%&--&.###56665 &&&&&&&&&&&&",
"&&&&&&&2%&&.##.555.&&&&&&&&&&&&&",
"&&&&&&&%&&&.+<+444+.&&&&&&&&&&&&",
"&&&&&&&&&&&.+<*774+.&&&&&&&&&&&&",
"&&&&&&&&&&.++3*777+*.&&&&&&&&&&&",
"&&&&&&&&&&.*<**477+*.&&&&&&&&&&&",
"&&&&&&&&&.**>+*747++*.&&&&&&&&&&",
"&&&&&&&&&.65>++;;;++5.&&&&&&&&&&",
"&&&&&&&&&&...;;;;;;..&&&&&&&&&&&",
"&&&&&&&&&&&&.;;,,,;.&&&&&&&&&&&&",
"&&&&&&&&&&&&.;,,;,,.&&&&&&&&&&&&",
"&&&&&&&&&&&&.;,;.;,.&&&&&&&&&&&&",
"&&&&&&&&&&&&.;,;.;;.&&&&&&&&&&&&",
"&&&&&&&&&&&&.OOO.OO.&&&&&&&&&&&&",
"&&&&&&&&&&&&.===.O==.&&&&&&&&&&&",
"&&&&&&&&&$$$ooooooooo$$&&&&&&&&&",
"&&&&&&&&&&$$$$$$$$$$$$&&&&&&&&&&"
};
