/* XPM */
static char *wall1701276706[] = {
/* columns rows colors chars-per-pixel */
"32 32 69 1 ",
"  c #5D5248",
". c #5C5247",
"X c #4F311E",
"o c #5C5147",
"O c #5D5247",
"+ c #4F3625",
"@ c #676159",
"# c #584132",
"$ c #543624",
"% c #5F5349",
"& c #5E5146",
"* c #5D4D41",
"= c #563D2C",
"- c #563B2A",
"; c #553726",
": c #553827",
"> c #583F30",
", c #6C675F",
"< c #6D685F",
"1 c #573F30",
"2 c #5B483B",
"3 c #573C2D",
"4 c #543523",
"5 c #5B483C",
"6 c #5B4639",
"7 c #5A4639",
"8 c #5A4538",
"9 c #5A4437",
"0 c #5A4436",
"q c #5A4336",
"w c #594335",
"e c #584032",
"r c #5B493C",
"t c #5D4D42",
"y c #5B473A",
"u c #69645C",
"i c #5E4E43",
"p c #62574E",
"a c #61554C",
"s c #635951",
"d c #5F5146",
"f c #6C685F",
"g c #6C675E",
"h c #5C4B40",
"j c #665F58",
"k c #61564D",
"l c #5F5046",
"z c #5C4B3F",
"x c #5B473B",
"c c #5C4A3E",
"v c #5C493D",
"b c #594234",
"n c #594032",
"m c #5E4F45",
"M c #665E57",
"N c #5E4F44",
"B c #655D56",
"V c #5C4D41",
"C c #5A4637",
"Z c #594334",
"A c #594233",
"S c #5A4638",
"D c #5D5044",
"F c #5D4F43",
"G c #5D4E43",
"H c #5D4E42",
"J c #5B483A",
"K c #5C4B3E",
"L c white",
/* pixels */
" .......................Xoo.OOOO",
" .......................X..OOOOO",
" .......................+..OOOOO",
" .......................+...OOOO",
" .......................+...OOOO",
"O.......................+oo.OOOO",
"@@@@@@@@@@@@@@@@@@@@@@@@#@@@@@@@",
"@@@@@@@@@@@@@@@@@@@@@@@@$@@@@@@@",
"%&&&&&***&&&%%%%%%%%##=-;:>%%%%%",
",<<<<<<*,,,,,,,,,,,,,,,,,,,,,,,,",
"@@@@@@@*@@@@@@@@@@@@@@@@@@@@@@@@",
"@@@@@@@*@@@@@@@@@@@@@@@@@@@@@@@@",
"@@@@@@@*@@@@@@@@@@@@@@@@@@@@@@@@",
"@@@@@@@*@@@@@@@@@@@@@@@@@@@@@@@@",
"@@@@@@@*@@@@@@@@@@@@@@@@@@@@@@@@",
"@@@@@@@#@@@@@@@@@@@@@@@@@@@@@@@@",
"@@@@@@@1@@@@@@@@@@@@@@@@@@@@@@@@",
"%22233$4;35678990qwwwe2rtrry%%%%",
",uuuuuuuuuuu8ipaasdddf,gh,,,,,,,",
"jjjjjjjjjjjj7iikkljjjjjjzjjjjjjj",
"jjjjjjjjjjjjuxikkcjjjjjjvjjjjjjj",
"jjjjjjjjjjjjjubenjjjjjjjmMjjjjjj",
"jjjjjjjjjjjjjjuuujjjjjjjmjjjjjjj",
"jjjjjjjjjjjjjjjjjjjjjjjjNjjjjjjj",
"jjjjjjjjjjjjjjjjjjjjjjjj4jjjjjjj",
"jjjjBjjjjjjjjjjjjjjjjjjj4jjjjjjj",
"V%%%CZAZAbSDDFGHHHHHt444444VVVVV",
",,,,,,,>JK,,,,,,,,,,,,,,,,,,,,,,",
"jjjjjjjZK,jjjjjjjjjjjjjjjjjjjjjj",
"jjjjjjjK,jjjjjjjjjjjjjjjjjjjjjjj",
"jjjjjjj&jjjjjjjjjjjjjjjjjjjjjjjj",
"jjjjjjj%jjjjjjjjjjjjjjjjjjjjjjjj"
};
