/* XPM */
static char *result[] = {
/* columns rows colors chars-per-pixel */
"32 32 26 1 ",
"  c #72751B",
". c black",
"X c #5B3C2C",
"o c #512D23",
"O c #7F8226",
"+ c #5E724A",
"@ c #787B21",
"# c #656C17",
"$ c #677755",
"% c #70805F",
"& c #BEC49F",
"* c #4A413C",
"= c #778667",
"- c #453A35",
"; c #A2A97F",
": c #7A2D18",
"> c #3C312C",
", c #6A7A5A",
"< c #342A25",
"1 c #2D2420",
"2 c #645C3F",
"3 c #5A5237",
"4 c #60583C",
"5 c #695D58",
"6 c #4E5012",
"7 c #35370D",
/* pixels */
"                                ",
"                                ",
"                                ",
"                                ",
"                                ",
"            .....               ",
"           .XooXX.              ",
"        O .XXooX++.             ",
"        @.X+XoX++++.            ",
"    OO@ #.++XX$++++.            ",
"     O@@#.+$X%%$$++.            ",
"  @O #@@ .$%X%%%%$+.            ",
"   O@@#@ ...%X...%+.            ",
"   #@@ ##.&****&%%.             ",
"    #@  #.$==-*%%%.             ",
"     # @@.$%--*X%+.             ",
"       O#.+;%-*;X...            ",
"       #...+;-*:=>*-.           ",
"      ..>>,o+-*%**--.           ",
"     .>><<..>--*---1.           ",
"     .,,..  .1---11.            ",
"      ..    .>111%<.            ",
"             .<1,<<.            ",
"             .11111.            ",
"            .2222223.           ",
"            .:232223.           ",
"            .24.222.            ",
"            .22.222.            ",
"            .**.,,,.            ",
"           .55*.%%%.            ",
"     6666667777777776           ",
"      66666666666666            "
};
