/* XPM */
static char *result[] = {
/* columns rows colors chars-per-pixel */
"32 32 30 1 ",
"  c #72751B",
". c black",
"X c #5B3C2C",
"o c #512D23",
"O c #7F8226",
"+ c #5E724A",
"@ c #787B21",
"# c #656C17",
"$ c #677755",
"% c #70805F",
"& c #BEC49F",
"* c #8DAB5F",
"= c #97A48A",
"- c #A5B09B",
"; c #A2A97F",
": c #7A2D18",
"> c #778667",
", c #3C312C",
"< c #4A413C",
"1 c #453A35",
"2 c #6A7A5A",
"3 c #342A25",
"4 c #2D2420",
"5 c #645C3F",
"6 c #5A5237",
"7 c #7C8A6E",
"8 c #60583C",
"9 c #695D58",
"0 c #4E5012",
"q c #35370D",
/* pixels */
"                                ",
"                                ",
"                                ",
"                                ",
"                                ",
"            .....               ",
"           .XooXX.              ",
"        O .XXooX++.             ",
"        @.X+XoX++++.            ",
"    OO@ #.++XX$++++.            ",
"     O@@#.+$X%%$$++.            ",
"  @O #@@ .$%X%%%%$+.            ",
"   O@@#@ ...%X...%+.            ",
"   #@@ ##.&*%X*&%%.             ",
"    #@  #.=-%X%%%%.             ",
"     # @@=$%%%XX%+.             ",
"       O=-+;%;%;X...            ",
"       =-..+;:;:>,<1.           ",
"      .=-,2o+::%,<<1.           ",
"     .,=-3..,,,,<114.           ",
"     .2=-.  .,,<114.            ",
"      .=-   .,,<1%,.            ",
"       =-    .<1233.            ",
"       =-   .<14444.            ",
"        =- .11555556.           ",
"        =-.77:565556.           ",
"         =->>58.555.            ",
"         =-..55.555.            ",
"          =-.<<.222.            ",
"           .99<.%%%.            ",
"     000000qqqqqqqqq0           ",
"      00000000000000            "
};
