/* XPM */
static char *result[] = {
/* columns rows colors chars-per-pixel */
"32 32 27 1 ",
"  c #72751B",
". c black",
"X c #5B3C2C",
"o c #512D23",
"O c #5E724A",
"+ c #7F8226",
"@ c #787B21",
"# c #677755",
"$ c #656C17",
"% c #70805F",
"& c #BEC49F",
"* c #8DAB5F",
"= c #A2A97F",
"- c #7A2D18",
"; c #778667",
": c #3C312C",
"> c #4A413C",
", c #6A7A5A",
"< c #453A35",
"1 c #342A25",
"2 c #2D2420",
"3 c #645C3F",
"4 c #5A5237",
"5 c #60583C",
"6 c #695D58",
"7 c #4E5012",
"8 c #35370D",
/* pixels */
"                                ",
"                                ",
"                                ",
"                                ",
"            .....               ",
"           .XooXX.              ",
"          .XXooXOO.             ",
"        +.XOXoXOOOO.            ",
"        @.OOXX#OOOO.            ",
"    ++@ $.O#X%%##OO.            ",
"     +@@$.#%X%%%%#O.            ",
"  @+ $@@ ...%X...%O.            ",
"   +@@$@ .&*%X*&%%.             ",
"   $@@ $$.#%%X%%%%.             ",
"    $@  $.#%%%XX%O.             ",
"     $ @@.O=%=%=X...            ",
"       +...O=-=-;:>>.           ",
"      ..::,oO--<<<<<.           ",
"     .::11..:>><<<22.           ",
"     .,,.. .><<222:.            ",
"      .. ..><<:::%:.            ",
"        .>><<111,,1.            ",
"        .;;...11,11.            ",
"         ..  .11111.            ",
"            .3333334.           ",
"            .3343334.           ",
"            .35.333.            ",
"            .33.333.            ",
"            .>>.,,,.            ",
"           .6->.%%%.            ",
"     7777778888888887           ",
"      77777777777777            "
};
