/* XPM */
static char *result[] = {
/* columns rows colors chars-per-pixel */
"32 32 27 1 ",
"  c #72751B",
". c black",
"X c #5B3C2C",
"o c #512D23",
"O c #7F8226",
"+ c #5E724A",
"@ c #787B21",
"# c #656C17",
"$ c #677755",
"% c #70805F",
"& c #342A25",
"* c #BEC49F",
"= c #8DAB5F",
"- c #6A7A5A",
"; c #A2A97F",
": c #7A2D18",
"> c #778667",
", c #3C312C",
"< c #4A413C",
"1 c #453A35",
"2 c #2D2420",
"3 c #645C3F",
"4 c #5A5237",
"5 c #60583C",
"6 c #695D58",
"7 c #4E5012",
"8 c #35370D",
/* pixels */
"                                ",
"                                ",
"                                ",
"                                ",
"                                ",
"            .....               ",
"           .XooXX.              ",
"        O .XXooX++.             ",
"        @.X+XoX++++.            ",
"    OO@ #.++XX$++++.            ",
"     O@@#.+$X%%$$++.            ",
"  @O #@@ .$%X%%%%$+.            ",
"   O@@#@....%X...%+.            ",
"   #@@ .&&*=%X=*%%.             ",
"    #@ .--$%%X%%%%.             ",
"     # @.&$%%%XX%+.             ",
"       O.&+;%;%;X...            ",
"       #.&&+;:;:>,<<.           ",
"        .&-&+::<<<11.           ",
"         ..<<<<11122.           ",
"        .<<1111222,.            ",
"        .>>..2,,,%,.            ",
"         ..  .&&-&&.            ",
"             .22222.            ",
"            .3333334.           ",
"            .3343334.           ",
"            .35.333.            ",
"            .33.333.            ",
"            :<:.---.            ",
"           .66<.%%%.            ",
"      777778888888887           ",
"       7777777777777            "
};
