/* XPM */
static char *result[] = {
/* columns rows colors chars-per-pixel */
"32 32 29 1 ",
"  c #72751B",
". c black",
"X c #5B3C2C",
"o c #512D23",
"O c #7F8226",
"+ c #5E724A",
"@ c #787B21",
"# c #656C17",
"$ c #677755",
"% c #70805F",
"& c #97A48A",
"* c #A5B09B",
"= c #BEC49F",
"- c #8DAB5F",
"; c #A2A97F",
": c #7A2D18",
"> c #778667",
", c #3C312C",
"< c #4A413C",
"1 c #453A35",
"2 c #342A25",
"3 c #2D2420",
"4 c #6A7A5A",
"5 c #645C3F",
"6 c #5A5237",
"7 c #60583C",
"8 c #695D58",
"9 c #4E5012",
"0 c #35370D",
/* pixels */
"                                ",
"                                ",
"                                ",
"                                ",
"                                ",
"            .....               ",
"           .XooXX.              ",
"        O .XXooX++.             ",
"        @.X+XoX++++.            ",
"    OO@ #.++XX$++++.            ",
"     O@@#.+$X%%$$++.            ",
"  @O #@@ .$%X%%%%$+.            ",
"   O@@#@ ...%X...%+.            ",
"   #@@&*#.=-%X-=%%.             ",
"    #&  #.$%%X%%%%.             ",
"    &* @@.$%%%XX%+.             ",
"   &*  O#.+;%;%;X...            ",
"   &*  #  .+;:;:>,<<.           ",
"   &*     .,+::<<<11.           ",
"   &*     .o2<<11133.           ",
"   &*    .%<<11333,.            ",
"   &*   .<<113,,,%,.            ",
"   &*   .,,...22422.            ",
"    &* .,2.  .33333.            ",
"    &*.,,2. .5555556.           ",
"     &*44.  .5565556.           ",
"     &*..   .57.555.            ",
"      &*    .55.555.            ",
"            :<:.444.            ",
"           .888.%%%.            ",
"      999990000000009           ",
"       9999999999999            "
};
