/* XPM */
static char *dfc118fa8a8e4e49b0c360c318f797cdBC6lvCE2YbOlNtcJ[] = {
/* columns rows colors chars-per-pixel */
"32 32 171 2 ",
"   c #656C17",
".  c #72751B",
"X  c #6D5B38",
"o  c #6C5E32",
"O  c #6A612D",
"+  c #746E27",
"@  c #756C2B",
"#  c #787B21",
"$  c #796636",
"%  c #776932",
"&  c #76633A",
"*  c #79633B",
"=  c #591A7B",
"-  c #705741",
";  c #7F515B",
":  c #7F604E",
">  c #7B426B",
",  c #7F4275",
"<  c #827737",
"1  c #853D7F",
"2  c #80476D",
"3  c #8B5067",
"4  c #7F8226",
"5  c #3B0B87",
"6  c #420A87",
"7  c #47128A",
"8  c #470999",
"9  c #4B0B9A",
"0  c #560E9D",
"q  c #4E179F",
"w  c #51189D",
"e  c #751C9E",
"r  c #7F3786",
"t  c #7C2D9A",
"y  c #4F0FA6",
"u  c #560CA3",
"i  c #550DAD",
"p  c #5A0CAB",
"a  c #5B11A5",
"s  c #5D09B1",
"d  c #5C09B9",
"f  c #5904B6",
"g  c #6801AE",
"h  c #6202A4",
"j  c #6110AE",
"k  c #711BA4",
"l  c #6407B4",
"z  c #620AB2",
"x  c #6A0BB4",
"c  c #6B04BC",
"v  c #6508BE",
"b  c #6807B6",
"n  c #7801B7",
"m  c #7B04BE",
"M  c #760EBD",
"N  c #7404B7",
"B  c #6411B4",
"V  c #6A13B7",
"C  c #7D17BE",
"Z  c #7715B6",
"A  c #702EA3",
"S  c #7B20AC",
"D  c #7925A2",
"F  c #7E26B9",
"G  c #5D04C5",
"H  c #5D08C6",
"J  c #6505C4",
"K  c #6C04C3",
"L  c #6009C5",
"P  c #6D0BC4",
"I  c #6505CC",
"U  c #6B01CC",
"Y  c #6C08C9",
"T  c #620DCE",
"R  c #7304C4",
"E  c #7B07C1",
"W  c #7A0BC4",
"Q  c #7404CA",
"!  c #7D03CD",
"~  c #770ACA",
"^  c #6F11C2",
"/  c #7010C5",
"(  c #7F16C2",
")  c #7B16C8",
"_  c #6B08D1",
"`  c #7401D5",
"'  c #7C01D1",
"]  c #7B02DB",
"[  c #833787",
"{  c #8B3F85",
"}  c #873789",
"|  c #89378A",
" . c #853096",
".. c #8D3196",
"X. c #953097",
"o. c #9E3E9B",
"O. c #8002BF",
"+. c #831FB8",
"@. c #8621AA",
"#. c #8022BC",
"$. c #8D22BA",
"%. c #8C24B1",
"&. c #A02DB5",
"*. c #B03CB8",
"=. c #934084",
"-. c #9A4099",
";. c #A1449B",
":. c #BD45BE",
">. c #8201C7",
",. c #830AC7",
"<. c #810DC8",
"1. c #8703CE",
"2. c #8716C6",
"3. c #8818C7",
"4. c #8012CA",
"5. c #8C1BCB",
"6. c #871BC3",
"7. c #9819C4",
"8. c #9211C5",
"9. c #8402D2",
"0. c #840ED2",
"q. c #8D08D2",
"w. c #8301DC",
"e. c #8901DD",
"r. c #9416D4",
"t. c #A91FD9",
"y. c #A219DA",
"u. c #8E22C3",
"i. c #9421C3",
"p. c #9221C8",
"a. c #9D2EC9",
"s. c #A92FC1",
"d. c #A02FCE",
"f. c #AD32C2",
"g. c #A738C6",
"h. c #AC3DC9",
"j. c #B135C3",
"k. c #B439C3",
"l. c #B539CE",
"z. c #BB32CA",
"x. c #AF2DDC",
"c. c #BF2DD0",
"v. c #BF2EDE",
"b. c #AC31DE",
"n. c #B634D8",
"m. c #8100E0",
"M. c #8900E0",
"N. c #8D00E8",
"B. c #9101E3",
"V. c #C02EDB",
"C. c #C136DF",
"Z. c #CA3AD8",
"A. c #D03EDE",
"S. c #C12FEC",
"D. c #C72FE6",
"F. c #CF39E2",
"G. c #D537E1",
"H. c #D43BE1",
"J. c #D236EF",
"K. c #DE33F1",
"L. c #E52FF9",
"P. c #E239F6",
"I. c #A841C7",
"U. c #CB48E6",
"Y. c #C549E1",
"T. c #D542E1",
"R. c #D041EB",
"E. c #D54AEC",
"W. c #D646F1",
"Q. c #E94EF6",
"!. c #E343F1",
/* pixels */
". . . . . . . . . . . . . . . . . . . . . . . . . . . . . . . . ",
". . . . . . . . . . . . . . . . . . . . . . . . . . . . . . . . ",
". . . . . . . . . . . . . . . . . . . . . . . . . . . . . . . . ",
". . . . . . . . . . . . . . . . . . . . . . . . . . . . . . . . ",
". . . . . . . . . . . . . . * -.* . . . . . . . . . . . . . . . ",
". . . . . . . . . . . . . * :.g.:.* . . . . . . . . . . . . . . ",
". . . . . . . . . . . . . ;.I.A h.;.* . . . . . . . . . . . . . ",
". . . . . . . . 4 . . * ;.a.q w a d.l.* . . . . . . . . . . . . ",
". . . . . . . . # # @ o.F.u i i p i n.;.@ . . . . . . . . . . . ",
". . . . 4 4 # .   # { K.t.x s p s z V !.=.% . . . . . . . . . . ",
". . . . . 4 # #   O n.x.<.m E N R c v b.Z.3 . . . . . . . . . . ",
". . # 4 .   # # . > P.5.W m c R ! R K r.Q.*.. . . . . . . . . . ",
". . . 4 # #   # + { J.P P c c R e.! Q ~ W.k.% . . . . . . . . . ",
". . .   # # .   X c.S._ K K R ! 9.O.n g D.L.; . . . . . . . . . ",
". . . .   # . . - Z.y.J K Q ' w.9.>.n h 7.K.2 . . . . . . . . . ",
". . . . .   . # : G.r.R Q ' 9.M.e.>.m g 8.K., . . . . . . . . . ",
". . . . . . . < > G.G I ` w.B.N.m.` U Q R D.} @ . . . . . . . . ",
". . . . . . . o 1 H.G G G ` e.w.] U J Q W R...$ . . . . . . . . ",
". . . . . . . * } T.L G G ] e.9.` U K Q ,.E.X.* . . . . . . . . ",
". . . . . . . * | T.d J Y ~ 9.q.c f G Q ,.E.X.* . . . . . . . . ",
". . . . . . . & } T.i L _ 0.0.q.K b c I x U...* . . . . . . . . ",
". . . . . . . & r H.y H T / ~ E l l b d p Y...* . . . . . . . . ",
". . . . . . . & [ H.8 s ^ ) 4.W M M M z u C...* . . . . . . . . ",
". . . . . . . & [ H.6 Z 6.5.3.2.( ( C V 9 v. .* . . . . . . . . ",
". . . . . . . * | H.5 0 B B B x B B j a 9 V. .& . . . . . . . . ",
". . . . . . . * | H.7 @.$.u.p.i.i.$.$.%.= z. .& . . . . . . . . ",
". . . . . . . * | G.k e S F #.+.Z S S D t A. .& . . . . . . . . ",
". . . . . . . * } &.s.f.j.k.j.f.s.f.f.j.k.j. .* . . . . . . . . ",
". . . . . . . . . . . . . . . . . . . . . . . . . . . . . . . . ",
". . . . . . . . . . . . . . . . . . . . . . . . . . . . . . . . ",
". . . . . . . . . . . . . . . . . . . . . . . . . . . . . . . . ",
". . . . . . . . . . . . . . . . . . . . . . . . . . . . . . . . "
};
