/* XPM */
static char *perso1701276706[] = {
/* columns rows colors chars-per-pixel */
"32 32 24 1 ",
"  c #72751B",
". c #0C0A07",
"X c #4C342F",
"o c #7F8226",
"O c #634A45",
"+ c #787B21",
"@ c #656C17",
"# c #D2A394",
"$ c #E4B5A5",
"% c #553D39",
"& c #B56A68",
"* c #291A18",
"= c #3A2B28",
"- c #6E7D61",
"; c #C0AC98",
": c #4C403D",
"> c #DBCBBC",
", c #87947C",
"< c #425059",
"1 c #57636B",
"2 c #362623",
"3 c #554C3C",
"4 c #525315",
"5 c #3C3C10",
/* pixels */
"                                ",
"                                ",
"                                ",
"                                ",
"                                ",
"              ..  .             ",
"           ...XX..X.            ",
"        o .XXXOOXXOX.           ",
"        ++ .OOOOOOOOO.          ",
"    oo+ @+.OOOOOOOOOOX.         ",
"     o++@@.OOOXXOXOOOXX.        ",
"  +o @++ .XXOO#XO#OOOO.         ",
"   o++@+ +.XO###O##OOO.         ",
"   @++ @@+.OO#.$#$.#XOO.        ",
"    @+  @.%O&#*$$$*#&%.         ",
"     @ ++ .%%#$$$$$#%%.         ",
"       o@  .%%#$$$#%%.          ",
"       @    .%.###.%.           ",
"           .=-=;;;=-=.          ",
"           .=-:>>;:-=.          ",
"          .==,:>>>:,==.         ",
"          .:=-:;>>:-=:.         ",
"         .::.=:>;>:=.::.        ",
"         .$#.==<<<==.#$.        ",
"          ...<11111<...         ",
"            .<11<11<.           ",
"            .<1<.<1<.           ",
"            .<<. .<<.           ",
"            .22. .22.           ",
"           .332. .233.          ",
"         445555555555544        ",
"          4444444444444         "
};
